<svg width="31" height="23" viewBox="0 0 31 23" fill="none" xmlns="http://www.w3.org/2000/svg">
<path d="M4.65 2.875H7.1083L8.6583 1.4375C9.55575 0.605187 11.1305 0 12.4 0H18.6C19.8694 0 21.4442 0.605187 22.3417 1.4375L23.8917 2.875H26.35C28.9137 2.875 31 4.80987 31 7.1875V18.6875C31 21.0651 28.9137 23 26.35 23H4.65C2.0863 23 5.96046e-08 21.0651 5.96046e-08 18.6875V7.1875C5.96046e-08 4.80987 2.0863 2.875 4.65 2.875ZM15.5 17.25C16.939 17.2498 18.319 16.7195 19.3364 15.7757C20.3538 14.8319 20.9252 13.5519 20.925 12.2173C20.9248 10.8828 20.353 9.60293 19.3353 8.65938C18.3176 7.71584 16.9375 7.18587 15.4984 7.18606C14.0594 7.18625 12.6795 7.71659 11.6621 8.6604C10.6447 9.60421 10.0732 10.8842 10.0734 12.2188C10.0737 13.5533 10.6455 14.8331 11.6632 15.7767C12.6808 16.7202 14.061 17.2502 15.5 17.25ZM6.2 10.4923C6.46461 10.4923 6.72663 10.444 6.9711 10.3501C7.21558 10.2561 7.43771 10.1185 7.62482 9.94497C7.81193 9.77144 7.96036 9.56543 8.06162 9.3387C8.16288 9.11198 8.215 8.86897 8.215 8.62356C8.215 8.37815 8.16288 8.13515 8.06162 7.90842C7.96036 7.6817 7.81193 7.47569 7.62482 7.30216C7.43771 7.12863 7.21558 6.99098 6.9711 6.89706C6.72663 6.80315 6.46461 6.75481 6.2 6.75481C5.66559 6.75481 5.15307 6.9517 4.77518 7.30216C4.39729 7.65262 4.185 8.12794 4.185 8.62356C4.185 9.11918 4.39729 9.59451 4.77518 9.94497C5.15307 10.2954 5.66559 10.4923 6.2 10.4923Z" fill="white"/>
</svg>
