<svg width="25" height="24" viewBox="0 0 25 24" fill="none" xmlns="http://www.w3.org/2000/svg">
<g clip-path="url(#clip0_73_597)">
<path d="M12.5 0C5.883 0 0.5 5.383 0.5 12C0.5 18.617 5.883 24 12.5 24C19.117 24 24.5 18.617 24.5 12C24.5 5.383 19.117 0 12.5 0ZM12.5 22C6.986 22 2.5 17.514 2.5 12C2.5 6.486 6.986 2 12.5 2C18.014 2 22.5 6.486 22.5 12C22.5 17.514 18.014 22 12.5 22ZM16.5 12H18.5C18.5 14.968 16.334 17.439 13.5 17.916V20H11.5V17.916C8.666 17.439 6.5 14.968 6.5 12H8.5C8.5 14.206 10.294 16 12.5 16C14.706 16 16.5 14.206 16.5 12ZM10.5 12V7C10.5 5.895 11.395 5 12.5 5C13.605 5 14.5 5.895 14.5 7V12C14.5 13.105 13.605 14 12.5 14C11.395 14 10.5 13.105 10.5 12Z" fill="#00643A"/>
</g>
<defs>
<clipPath id="clip0_73_597">
<rect width="24" height="24" fill="white" transform="translate(0.5)"/>
</clipPath>
</defs>
</svg>
