<svg width="19" height="22" viewBox="0 0 19 22" fill="none" xmlns="http://www.w3.org/2000/svg">
<path d="M18.9777 3.14286H13.4583V0.785714C13.4583 0.57733 13.3749 0.37748 13.2265 0.23013C13.078 0.0827803 12.8766 0 12.6667 0H6.33333C6.12337 0 5.92201 0.0827803 5.77354 0.23013C5.62507 0.37748 5.54167 0.57733 5.54167 0.785714V3.14286H0.0222655L0 5.10714H1.63281L2.62685 20.5268C2.65201 20.9255 2.82926 21.2998 3.12256 21.5735C3.41585 21.8471 3.80317 21.9997 4.20573 22H14.7943C15.1966 21.9999 15.5838 21.8479 15.8773 21.5747C16.1707 21.3015 16.3484 20.9277 16.3741 20.5292L17.3672 5.10714H19L18.9777 3.14286ZM5.54167 18.8571L5.09635 6.28571H6.72917L7.17448 18.8571H5.54167ZM10.2917 18.8571H8.70833V6.28571H10.2917V18.8571ZM11.4792 3.14286H7.52083V1.76786C7.52083 1.71576 7.54169 1.6658 7.5788 1.62896C7.61592 1.59212 7.66626 1.57143 7.71875 1.57143H11.2812C11.3337 1.57143 11.3841 1.59212 11.4212 1.62896C11.4583 1.6658 11.4792 1.71576 11.4792 1.76786V3.14286ZM13.4583 18.8571H11.8255L12.2708 6.28571H13.9036L13.4583 18.8571Z" fill="#539479"/>
</svg>
