<svg width="167" height="224" viewBox="0 0 167 224" fill="none" xmlns="http://www.w3.org/2000/svg">
<path d="M22.5615 22.5824L22.5624 22.5815C27.9825 17.1464 35.1119 14.3447 45.6333 12.9269C56.1981 11.5032 69.956 11.5 88.5 11.5C107.044 11.5 120.799 11.5057 131.363 12.9305C141.883 14.3495 149.013 17.1513 154.439 22.5824C159.864 28.0133 162.661 35.1575 164.076 45.7005C165.497 56.2863 165.5 70.0713 165.5 88.6506V94.5241H11.5V88.6506C11.5 70.0713 11.5032 56.2863 12.9242 45.7005C14.3395 35.1575 17.1364 28.0133 22.5615 22.5824ZM11.5 118.145V112.271H165.5V118.145C165.5 136.724 165.497 150.509 164.076 161.095C162.661 171.636 159.865 178.78 154.441 184.21C151.579 187.061 148.154 189.28 144.385 190.725L143.422 191.094V192.125V206.627C143.422 208.185 142.804 209.679 141.705 210.781C140.606 211.882 139.116 212.5 137.562 212.5H127.75C124.519 212.5 121.891 209.871 121.891 206.627V196.333V194.752L120.312 194.835C111.578 195.295 101.152 195.295 88.5 195.295C75.848 195.295 65.4224 195.295 56.6882 194.835L55.1094 194.752V196.333V206.627C55.1094 208.185 54.4913 209.679 53.3922 210.781C52.2931 211.882 50.8031 212.5 49.25 212.5H39.4375C36.2063 212.5 33.5781 209.871 33.5781 206.627V192.125V191.094L32.615 190.725C28.8462 189.28 25.4207 187.061 22.5589 184.21C17.1355 178.78 14.3392 171.636 12.9242 161.095C11.5032 150.509 11.5 136.724 11.5 118.145ZM143.828 52.8831C142.167 51.2187 139.913 50.2831 137.562 50.2831C135.212 50.2831 132.958 51.2187 131.297 52.8831C129.636 54.5475 128.703 56.8042 128.703 59.1566V78.8193C128.703 81.1717 129.636 83.4284 131.297 85.0928C132.958 86.7572 135.212 87.6928 137.562 87.6928C139.913 87.6928 142.167 86.7572 143.828 85.0928C145.489 83.4284 146.422 81.1717 146.422 78.8193V59.1566C146.422 56.8042 145.489 54.5475 143.828 52.8831ZM143.828 121.702C142.167 120.038 139.913 119.102 137.562 119.102C135.212 119.102 132.958 120.038 131.297 121.702C129.636 123.367 128.703 125.623 128.703 127.976V147.639C128.703 149.991 129.636 152.248 131.297 153.912C132.958 155.576 135.212 156.512 137.562 156.512C139.913 156.512 142.167 155.576 143.828 153.912C145.489 152.248 146.422 149.991 146.422 147.639V127.976C146.422 125.623 145.489 123.367 143.828 121.702Z" fill="white" stroke="#81938C" stroke-width="3"/>
</svg>
