<svg width="39" height="39" viewBox="0 0 39 39" fill="none" xmlns="http://www.w3.org/2000/svg">
<path fill-rule="evenodd" clip-rule="evenodd" d="M19.5 4.875C19.7434 4.87515 19.9837 4.92999 20.2031 5.03546C20.4225 5.14094 20.6154 5.29435 20.7675 5.48438L27.2675 13.6094C27.4088 13.7749 27.5155 13.9671 27.5811 14.1747C27.6467 14.3822 27.67 14.6008 27.6495 14.8175C27.629 15.0342 27.5652 15.2446 27.4619 15.4362C27.3585 15.6278 27.2177 15.7966 27.0478 15.9327C26.878 16.0688 26.6825 16.1694 26.473 16.2285C26.2635 16.2876 26.0443 16.3041 25.8283 16.2768C25.6124 16.2496 25.4041 16.1792 25.2159 16.0699C25.0276 15.9606 24.8632 15.8147 24.7325 15.6406L21.125 11.1312V22.75C21.125 23.181 20.9538 23.5943 20.649 23.899C20.3443 24.2038 19.931 24.375 19.5 24.375C19.069 24.375 18.6557 24.2038 18.351 23.899C18.0462 23.5943 17.875 23.181 17.875 22.75V11.1312L14.2675 15.6423C14.1368 15.8163 13.9724 15.9623 13.7841 16.0716C13.5959 16.1808 13.3876 16.2512 13.1717 16.2784C12.9557 16.3057 12.7365 16.2893 12.527 16.2302C12.3175 16.171 12.122 16.0704 11.9522 15.9343C11.7823 15.7982 11.6415 15.6294 11.5381 15.4378C11.4348 15.2463 11.371 15.0359 11.3505 14.8192C11.33 14.6025 11.3533 14.3839 11.4189 14.1763C11.4845 13.9688 11.5912 13.7765 11.7325 13.611L18.2325 5.486C18.3845 5.29568 18.5773 5.14196 18.7967 5.0362C19.0161 4.93044 19.2564 4.87535 19.5 4.875ZM14.625 22.75V21.125H8.125C7.26305 21.125 6.4364 21.4674 5.8269 22.0769C5.21741 22.6864 4.875 23.513 4.875 24.375V30.875C4.875 31.737 5.21741 32.5636 5.8269 33.1731C6.4364 33.7826 7.26305 34.125 8.125 34.125H30.875C31.737 34.125 32.5636 33.7826 33.1731 33.1731C33.7826 32.5636 34.125 31.737 34.125 30.875V24.375C34.125 23.513 33.7826 22.6864 33.1731 22.0769C32.5636 21.4674 31.737 21.125 30.875 21.125H24.375V22.75C24.375 24.0429 23.8614 25.2829 22.9471 26.1971C22.0329 27.1114 20.7929 27.625 19.5 27.625C18.2071 27.625 16.9671 27.1114 16.0529 26.1971C15.1386 25.2829 14.625 24.0429 14.625 22.75ZM27.625 26C27.194 26 26.7807 26.1712 26.476 26.476C26.1712 26.7807 26 27.194 26 27.625C26 28.056 26.1712 28.4693 26.476 28.774C26.7807 29.0788 27.194 29.25 27.625 29.25H27.6413C28.0722 29.25 28.4855 29.0788 28.7903 28.774C29.095 28.4693 29.2663 28.056 29.2663 27.625C29.2663 27.194 29.095 26.7807 28.7903 26.476C28.4855 26.1712 28.0722 26 27.6413 26H27.625Z" fill="white"/>
</svg>
