<svg width="26" height="20" viewBox="0 0 26 20" fill="none" xmlns="http://www.w3.org/2000/svg">
<path d="M4.25 2.875H6.2325L7.4825 1.6875C8.20625 0.999937 9.47625 0.5 10.5 0.5H15.5C16.5238 0.5 17.7937 0.999937 18.5175 1.6875L19.7675 2.875H21.75C23.8175 2.875 25.5 4.47337 25.5 6.4375V15.9375C25.5 17.9016 23.8175 19.5 21.75 19.5H4.25C2.1825 19.5 0.5 17.9016 0.5 15.9375V6.4375C0.5 4.47337 2.1825 2.875 4.25 2.875ZM13 14.75C14.1605 14.7498 15.2734 14.3117 16.0939 13.5321C16.9143 12.7524 17.3752 11.695 17.375 10.5926C17.3748 9.4901 16.9137 8.43285 16.093 7.6534C15.2723 6.87396 14.1592 6.43615 12.9987 6.43631C11.8383 6.43647 10.7254 6.87457 9.9049 7.65424C9.08443 8.43391 8.62358 9.49129 8.62375 10.5938C8.62391 11.6962 9.08508 12.7535 9.90578 13.5329C10.7265 14.3124 11.8395 14.7502 13 14.75ZM5.5 9.16756C5.7134 9.16756 5.9247 9.12763 6.12186 9.05005C6.31901 8.97247 6.49815 8.85876 6.64905 8.71541C6.79994 8.57206 6.91964 8.40188 7.00131 8.21458C7.08297 8.02728 7.125 7.82654 7.125 7.62381C7.125 7.42108 7.08297 7.22034 7.00131 7.03305C6.91964 6.84575 6.79994 6.67557 6.64905 6.53222C6.49815 6.38887 6.31901 6.27515 6.12186 6.19757C5.9247 6.11999 5.7134 6.08006 5.5 6.08006C5.06902 6.08006 4.6557 6.24271 4.35095 6.53222C4.04621 6.82173 3.875 7.21438 3.875 7.62381C3.875 8.03324 4.04621 8.4259 4.35095 8.71541C4.6557 9.00492 5.06902 9.16756 5.5 9.16756Z" fill="#00643A"/>
</svg>
